<?xml version="1.0" encoding="UTF-8"?>
<svg width="32" height="32" viewBox="0 0 32 32" fill="none" xmlns="http://www.w3.org/2000/svg">
  <!-- Ship hull -->
  <path d="M5 20L16 26L27 20V24L16 30L5 24V20Z" fill="#4F46E5" />
  
  <!-- Ship body -->
  <path d="M8 14L16 18L24 14L16 10L8 14Z" fill="#818CF8" />
  
  <!-- Ship mast -->
  <rect x="15" y="4" width="2" height="14" fill="#6366F1" />
  
  <!-- Ship sail -->
  <path d="M16 4L22 14H16V4Z" fill="#A5B4FC" opacity="0.9" />
  
  <!-- Waves -->
  <path d="M4 22C6 21 8 23 10 22C12 21 14 23 16 22C18 21 20 23 22 22C24 21 26 23 28 22" stroke="#60A5FA" stroke-width="1.5" stroke-linecap="round" />
  <path d="M4 25C6 24 8 26 10 25C12 24 14 26 16 25C18 24 20 26 22 25C24 24 26 26 28 25" stroke="#93C5FD" stroke-width="1.5" stroke-linecap="round" />
</svg>
